<mxfile host="app.diagrams.net" modified="2023-09-06T01:45:00.756Z" agent="Mozilla/5.0 (Windows NT 10.0; Win64; x64) AppleWebKit/537.36 (KHTML, like Gecko) Chrome/116.0.0.0 Safari/537.36 Edg/116.0.1938.69" etag="P8xJRESR9a6ZuoKWhqwX" version="21.7.2" type="device">
  <diagram name="第 1 页" id="-CyQnAU4A7CDn9qKIJ2f">
    <mxGraphModel dx="542" dy="299" grid="0" gridSize="10" guides="1" tooltips="1" connect="1" arrows="1" fold="1" page="1" pageScale="1" pageWidth="827" pageHeight="1169" background="#000000" math="0" shadow="0">
      <root>
        <mxCell id="0" />
        <mxCell id="1" parent="0" />
        <mxCell id="k4qBv1WuYlhSNJNb8K5a-1" value="" style="endArrow=classic;html=1;rounded=0;labelBackgroundColor=#000000;fontColor=#F2F2F2;strokeColor=#FAFAFA;" parent="1" edge="1">
          <mxGeometry width="50" height="50" relative="1" as="geometry">
            <mxPoint x="210" y="200" as="sourcePoint" />
            <mxPoint x="400" y="200" as="targetPoint" />
          </mxGeometry>
        </mxCell>
        <mxCell id="k4qBv1WuYlhSNJNb8K5a-2" value="" style="endArrow=classic;html=1;rounded=0;labelBackgroundColor=#000000;fontColor=#F2F2F2;strokeColor=#FAFAFA;" parent="1" edge="1">
          <mxGeometry width="50" height="50" relative="1" as="geometry">
            <mxPoint x="210" y="200" as="sourcePoint" />
            <mxPoint x="210" y="100" as="targetPoint" />
          </mxGeometry>
        </mxCell>
        <mxCell id="k4qBv1WuYlhSNJNb8K5a-3" value="" style="endArrow=classic;html=1;rounded=0;labelBackgroundColor=#000000;fontColor=#F2F2F2;strokeColor=#FAFAFA;" parent="1" edge="1">
          <mxGeometry width="50" height="50" relative="1" as="geometry">
            <mxPoint x="210" y="200" as="sourcePoint" />
            <mxPoint x="210" y="250" as="targetPoint" />
          </mxGeometry>
        </mxCell>
        <mxCell id="k4qBv1WuYlhSNJNb8K5a-4" value="" style="endArrow=classic;html=1;rounded=0;labelBackgroundColor=#000000;fontColor=#F2F2F2;strokeColor=#FAFAFA;" parent="1" edge="1">
          <mxGeometry width="50" height="50" relative="1" as="geometry">
            <mxPoint x="210" y="200" as="sourcePoint" />
            <mxPoint x="400" y="150" as="targetPoint" />
          </mxGeometry>
        </mxCell>
        <mxCell id="k4qBv1WuYlhSNJNb8K5a-5" value="I,U&lt;sub&gt;r&lt;/sub&gt;" style="text;html=1;strokeColor=none;fillColor=none;align=center;verticalAlign=middle;whiteSpace=wrap;rounded=0;labelBackgroundColor=#000000;fontColor=#F2F2F2;" parent="1" vertex="1">
          <mxGeometry x="310" y="200" width="60" height="30" as="geometry" />
        </mxCell>
        <mxCell id="k4qBv1WuYlhSNJNb8K5a-6" value="U&lt;span style=&quot;font-size: 10px;&quot;&gt;&lt;sub&gt;L&lt;/sub&gt;&lt;/span&gt;" style="text;html=1;strokeColor=none;fillColor=none;align=center;verticalAlign=middle;whiteSpace=wrap;rounded=0;labelBackgroundColor=#000000;fontColor=#F2F2F2;" parent="1" vertex="1">
          <mxGeometry x="200" y="110" width="60" height="30" as="geometry" />
        </mxCell>
        <mxCell id="k4qBv1WuYlhSNJNb8K5a-7" value="U&lt;sub&gt;C2&lt;/sub&gt;" style="text;html=1;strokeColor=none;fillColor=none;align=center;verticalAlign=middle;whiteSpace=wrap;rounded=0;labelBackgroundColor=#000000;fontColor=#F2F2F2;" parent="1" vertex="1">
          <mxGeometry x="393" y="150" width="60" height="30" as="geometry" />
        </mxCell>
        <mxCell id="k4qBv1WuYlhSNJNb8K5a-8" value="U&lt;sub&gt;0&lt;/sub&gt;" style="text;html=1;strokeColor=none;fillColor=none;align=center;verticalAlign=middle;whiteSpace=wrap;rounded=0;labelBackgroundColor=#000000;fontColor=#F2F2F2;" parent="1" vertex="1">
          <mxGeometry x="260" y="150" width="60" height="30" as="geometry" />
        </mxCell>
        <mxCell id="k4qBv1WuYlhSNJNb8K5a-9" value="" style="endArrow=classic;html=1;rounded=0;labelBackgroundColor=#000000;fontColor=#F2F2F2;strokeColor=#FAFAFA;" parent="1" edge="1">
          <mxGeometry width="50" height="50" relative="1" as="geometry">
            <mxPoint x="400" y="150" as="sourcePoint" />
            <mxPoint x="400" y="173" as="targetPoint" />
          </mxGeometry>
        </mxCell>
        <mxCell id="k4qBv1WuYlhSNJNb8K5a-10" value="" style="endArrow=classic;html=1;rounded=0;labelBackgroundColor=#000000;fontColor=#F2F2F2;strokeColor=#FAFAFA;entryX=0;entryY=0.75;entryDx=0;entryDy=0;" parent="1" edge="1" target="k4qBv1WuYlhSNJNb8K5a-7">
          <mxGeometry width="50" height="50" relative="1" as="geometry">
            <mxPoint x="210" y="200" as="sourcePoint" />
            <mxPoint x="400" y="270" as="targetPoint" />
          </mxGeometry>
        </mxCell>
        <mxCell id="k4qBv1WuYlhSNJNb8K5a-11" value="U&lt;sub&gt;1&lt;/sub&gt;" style="text;html=1;strokeColor=none;fillColor=none;align=center;verticalAlign=middle;whiteSpace=wrap;rounded=0;labelBackgroundColor=#000000;fontColor=#F2F2F2;" parent="1" vertex="1">
          <mxGeometry x="339" y="170" width="60" height="30" as="geometry" />
        </mxCell>
        <mxCell id="k4qBv1WuYlhSNJNb8K5a-12" value="U&lt;sub&gt;C1&lt;/sub&gt;" style="text;html=1;strokeColor=none;fillColor=none;align=center;verticalAlign=middle;whiteSpace=wrap;rounded=0;labelBackgroundColor=#000000;fontColor=#F2F2F2;" parent="1" vertex="1">
          <mxGeometry x="210" y="230" width="60" height="30" as="geometry" />
        </mxCell>
      </root>
    </mxGraphModel>
  </diagram>
</mxfile>
